<svg width="24" height="24" viewBox="0 0 24 24" fill="none" xmlns="http://www.w3.org/2000/svg">
<path d="M22.2026 4.13794H1.79742C0.804703 4.13794 0 4.94264 0 5.93536V18.0647C0 19.0574 0.804703 19.8621 1.79742 19.8621H22.2026C23.1952 19.8621 24 19.0574 24 18.0647V5.93536C24 4.94264 23.1953 4.13794 22.2026 4.13794Z" fill="#F5F5F5"/>
<path d="M0.098877 5.3475H23.9011C23.6575 4.64358 22.9893 4.13794 22.2026 4.13794H1.79744C1.01069 4.13794 0.342486 4.64358 0.098877 5.3475Z" fill="#FF4B55"/>
<path d="M24 8.97607H0V10.1856H24V8.97607Z" fill="#FF4B55"/>
<path d="M24 6.55688H0V7.7664H24V6.55688Z" fill="#FF4B55"/>
<path d="M0 12.191C0 12.4195 0.185297 12.6048 0.413813 12.6048H24V11.3953H0V12.191Z" fill="#FF4B55"/>
<path d="M24 16.2338H0V17.4433H24V16.2338Z" fill="#FF4B55"/>
<path d="M23.9012 18.6525H0.098877C0.342486 19.3564 1.01074 19.862 1.79744 19.862H22.2026C22.9893 19.862 23.6575 19.3564 23.9012 18.6525Z" fill="#FF4B55"/>
<path d="M24 13.8146H0V15.0241H24V13.8146Z" fill="#FF4B55"/>
<path d="M0.413813 12.6048H10.7587C10.9872 12.6048 11.1725 12.4195 11.1725 12.191V4.55175C11.1725 4.32319 10.9872 4.13794 10.7587 4.13794H1.79742C0.804703 4.13799 0 4.94269 0 5.93541V12.191C0 12.4196 0.185297 12.6048 0.413813 12.6048Z" fill="#41479B"/>
<path d="M1.16198 5.08783L1.25358 5.36252L1.54312 5.36473C1.58062 5.36505 1.59614 5.41287 1.566 5.43513L1.33308 5.60712L1.42045 5.88316C1.43179 5.91888 1.39106 5.94851 1.36054 5.92666L1.125 5.75834L0.889451 5.92671C0.858935 5.94855 0.818295 5.91893 0.829545 5.88321L0.91692 5.60716L0.683998 5.43518C0.653858 5.41287 0.669373 5.36505 0.706873 5.36477L0.99642 5.36257L1.08801 5.08788C1.09983 5.05226 1.15008 5.05226 1.16198 5.08783Z" fill="#F5F5F5"/>
<path d="M1.16198 6.52457L1.25358 6.79926L1.54312 6.80146C1.58062 6.80179 1.59614 6.84956 1.566 6.87187L1.33308 7.0439L1.42045 7.31995C1.43179 7.35567 1.39106 7.38529 1.36054 7.36345L1.125 7.19512L0.889451 7.3635C0.858935 7.38529 0.818295 7.35572 0.829545 7.32L0.91692 7.04395L0.683998 6.87191C0.653858 6.8496 0.669373 6.80184 0.706873 6.80151L0.99642 6.7993L1.08801 6.52461C1.09983 6.48904 1.15008 6.48904 1.16198 6.52457Z" fill="#F5F5F5"/>
<path d="M1.16198 7.96161L1.25358 8.2363L1.54312 8.23851C1.58062 8.23883 1.59614 8.2866 1.566 8.30891L1.33308 8.48094L1.42045 8.75699C1.43179 8.79271 1.39106 8.82234 1.36054 8.80049L1.125 8.63216L0.889451 8.80054C0.858935 8.82234 0.818295 8.7928 0.829545 8.75704L0.91692 8.48099L0.683998 8.30896C0.653858 8.28665 0.669373 8.23888 0.706873 8.23855L0.99642 8.23635L1.08801 7.96166C1.09983 7.92604 1.15008 7.92604 1.16198 7.96161Z" fill="#F5F5F5"/>
<path d="M1.16198 9.3985L1.25358 9.67319L1.54312 9.67539C1.58062 9.67572 1.59614 9.72353 1.566 9.7458L1.33308 9.91783L1.42045 10.1939C1.43179 10.2296 1.39106 10.2592 1.36054 10.2374L1.125 10.069L0.889451 10.2374C0.858935 10.2592 0.818295 10.2296 0.829545 10.1939L0.91692 9.91787L0.683998 9.74584C0.653858 9.72363 0.669373 9.67577 0.706873 9.67544L0.99642 9.67324L1.08801 9.39855C1.09983 9.36293 1.15008 9.36293 1.16198 9.3985Z" fill="#F5F5F5"/>
<path d="M1.16198 10.8354L1.25358 11.11L1.54312 11.1122C1.58062 11.1126 1.59614 11.1603 1.566 11.1827L1.33308 11.3547L1.42045 11.6307C1.43179 11.6665 1.39106 11.6961 1.36054 11.6742L1.125 11.5059L0.889451 11.6743C0.858935 11.6961 0.818295 11.6665 0.829545 11.6308L0.91692 11.3547L0.683998 11.1827C0.653858 11.1604 0.669373 11.1126 0.706873 11.1123L0.99642 11.1101L1.08801 10.8354C1.09983 10.7998 1.15008 10.7998 1.16198 10.8354Z" fill="#F5F5F5"/>
<path d="M2.27728 5.79215L2.36887 6.06684L2.65842 6.06904C2.69592 6.06937 2.71143 6.11718 2.68129 6.13945L2.44837 6.31148L2.53575 6.58753C2.54709 6.62325 2.50636 6.65288 2.47584 6.63103L2.24029 6.46266L2.00475 6.63103C1.97423 6.65283 1.93359 6.62325 1.94484 6.58753L2.03222 6.31148L1.79929 6.13945C1.76915 6.11714 1.78467 6.06937 1.82217 6.06904L2.11172 6.06684L2.20331 5.79215C2.21512 5.75662 2.26542 5.75662 2.27728 5.79215Z" fill="#F5F5F5"/>
<path d="M2.27728 7.2292L2.36887 7.50389L2.65842 7.50609C2.69592 7.50642 2.71143 7.55423 2.68129 7.5765L2.44837 7.74853L2.53575 8.02457C2.54709 8.06029 2.50636 8.08992 2.47584 8.06807L2.24029 7.8997L2.00475 8.06807C1.97423 8.08987 1.93359 8.06034 1.94484 8.02457L2.03222 7.74853L1.79929 7.5765C1.76915 7.55428 1.78467 7.50642 1.82217 7.50609L2.11172 7.50389L2.20331 7.2292C2.21512 7.19362 2.26542 7.19362 2.27728 7.2292Z" fill="#F5F5F5"/>
<path d="M2.27728 8.66609L2.36887 8.94078L2.65842 8.94298C2.69592 8.94331 2.71143 8.99107 2.68129 9.01339L2.44837 9.18542L2.53575 9.46147C2.54709 9.49719 2.50636 9.52681 2.47584 9.50497L2.24029 9.33659L2.00475 9.50497C1.97423 9.52676 1.93359 9.49719 1.94484 9.46147L2.03222 9.18542L1.79929 9.01339C1.76915 8.99107 1.78467 8.94331 1.82217 8.94298L2.11172 8.94078L2.20331 8.66609C2.21512 8.63051 2.26542 8.63051 2.27728 8.66609Z" fill="#F5F5F5"/>
<path d="M2.27728 10.1029L2.36887 10.3776L2.65842 10.3798C2.69592 10.3802 2.71143 10.4279 2.68129 10.4502L2.44837 10.6223L2.53575 10.8983C2.54709 10.934 2.50636 10.9637 2.47584 10.9418L2.24029 10.7734L2.00475 10.9418C1.97423 10.9637 1.93359 10.934 1.94484 10.8983L2.03222 10.6223L1.79929 10.4502C1.76915 10.4279 1.78467 10.3802 1.82217 10.3798L2.11172 10.3776L2.20331 10.1029C2.21512 10.0674 2.26542 10.0674 2.27728 10.1029Z" fill="#F5F5F5"/>
<path d="M3.39257 5.08772L3.48417 5.36241L3.77371 5.36461C3.81121 5.36494 3.82673 5.41275 3.79659 5.43502L3.56367 5.607L3.65104 5.88305C3.66238 5.91877 3.62165 5.94839 3.59113 5.92655L3.35559 5.75817L3.12004 5.92655C3.08953 5.94839 3.04889 5.91877 3.06014 5.88305L3.14751 5.607L2.91459 5.43502C2.88445 5.4127 2.89996 5.36489 2.93746 5.36461L3.22701 5.36241L3.3186 5.08772C3.33042 5.05214 3.38071 5.05214 3.39257 5.08772Z" fill="#F5F5F5"/>
<path d="M3.39257 6.52457L3.48417 6.79926L3.77371 6.80146C3.81121 6.80179 3.82673 6.84956 3.79659 6.87187L3.56367 7.0439L3.65104 7.31995C3.66238 7.35567 3.62165 7.38529 3.59113 7.36345L3.35559 7.19507L3.12004 7.36345C3.08953 7.38524 3.04889 7.35567 3.06014 7.31995L3.14751 7.0439L2.91459 6.87187C2.88445 6.84956 2.89996 6.80179 2.93746 6.80146L3.22701 6.79926L3.3186 6.52457C3.33042 6.48904 3.38071 6.48904 3.39257 6.52457Z" fill="#F5F5F5"/>
<path d="M3.39257 7.96162L3.48417 8.23631L3.77371 8.23851C3.81121 8.23884 3.82673 8.2866 3.79659 8.30892L3.56367 8.48095L3.65104 8.75699C3.66238 8.79271 3.62165 8.82234 3.59113 8.80049L3.35559 8.63212L3.12004 8.80049C3.08953 8.82229 3.04889 8.79276 3.06014 8.75699L3.14751 8.48095L2.91459 8.30892C2.88445 8.2866 2.89996 8.23884 2.93746 8.23851L3.22701 8.23631L3.3186 7.96162C3.33042 7.92604 3.38071 7.92604 3.39257 7.96162Z" fill="#F5F5F5"/>
<path d="M3.39257 9.39851L3.48417 9.6732L3.77371 9.6754C3.81121 9.67573 3.82673 9.72354 3.79659 9.74581L3.56367 9.91784L3.65104 10.1939C3.66238 10.2296 3.62165 10.2592 3.59113 10.2374L3.35559 10.069L3.12004 10.2374C3.08953 10.2592 3.04889 10.2296 3.06014 10.1939L3.14751 9.91784L2.91459 9.74581C2.88445 9.72359 2.89996 9.67573 2.93746 9.6754L3.22701 9.6732L3.3186 9.39851C3.33042 9.36293 3.38071 9.36293 3.39257 9.39851Z" fill="#F5F5F5"/>
<path d="M3.39257 10.8354L3.48417 11.1101L3.77371 11.1123C3.81121 11.1126 3.82673 11.1603 3.79659 11.1827L3.56367 11.3547L3.65104 11.6307C3.66238 11.6665 3.62165 11.6961 3.59113 11.6742L3.35559 11.5059L3.12004 11.6742C3.08953 11.696 3.04889 11.6665 3.06014 11.6307L3.14751 11.3547L2.91459 11.1827C2.88445 11.1603 2.89996 11.1126 2.93746 11.1123L3.22701 11.1101L3.3186 10.8354C3.33042 10.7998 3.38071 10.7998 3.39257 10.8354Z" fill="#F5F5F5"/>
<path d="M4.50793 5.79215L4.59952 6.06684L4.88907 6.06904C4.92657 6.06937 4.94209 6.11718 4.91195 6.13945L4.67902 6.31148L4.7664 6.58753C4.77774 6.62325 4.73701 6.65288 4.70649 6.63103L4.47095 6.46266L4.2354 6.63103C4.20488 6.65283 4.16424 6.62325 4.17549 6.58753L4.26287 6.31148L4.02995 6.13945C3.9998 6.11714 4.01532 6.06937 4.05282 6.06904L4.34237 6.06684L4.43396 5.79215C4.44573 5.75662 4.49607 5.75662 4.50793 5.79215Z" fill="#F5F5F5"/>
<path d="M4.50793 7.2292L4.59952 7.50389L4.88907 7.50609C4.92657 7.50642 4.94209 7.55423 4.91195 7.5765L4.67902 7.74853L4.7664 8.02457C4.77774 8.06029 4.73701 8.08992 4.70649 8.06807L4.47095 7.8997L4.2354 8.06807C4.20488 8.08987 4.16424 8.06034 4.17549 8.02457L4.26287 7.74853L4.02995 7.5765C3.9998 7.55428 4.01532 7.50642 4.05282 7.50609L4.34237 7.50389L4.43396 7.2292C4.44573 7.19362 4.49607 7.19362 4.50793 7.2292Z" fill="#F5F5F5"/>
<path d="M4.50793 8.66609L4.59952 8.94078L4.88907 8.94298C4.92657 8.94331 4.94209 8.99107 4.91195 9.01339L4.67902 9.18542L4.7664 9.46147C4.77774 9.49719 4.73701 9.52681 4.70649 9.50497L4.47095 9.33659L4.2354 9.50497C4.20488 9.52676 4.16424 9.49719 4.17549 9.46147L4.26287 9.18542L4.02995 9.01339C3.9998 8.99107 4.01532 8.94331 4.05282 8.94298L4.34237 8.94078L4.43396 8.66609C4.44573 8.63051 4.49607 8.63051 4.50793 8.66609Z" fill="#F5F5F5"/>
<path d="M4.50793 10.1029L4.59952 10.3776L4.88907 10.3798C4.92657 10.3802 4.94209 10.4279 4.91195 10.4502L4.67902 10.6223L4.7664 10.8983C4.77774 10.934 4.73701 10.9637 4.70649 10.9418L4.47095 10.7734L4.2354 10.9418C4.20488 10.9637 4.16424 10.934 4.17549 10.8983L4.26287 10.6223L4.02995 10.4502C3.9998 10.4279 4.01532 10.3802 4.05282 10.3798L4.34237 10.3776L4.43396 10.1029C4.44573 10.0674 4.49607 10.0674 4.50793 10.1029Z" fill="#F5F5F5"/>
<path d="M5.62321 5.08771L5.71481 5.3624L6.00435 5.3646C6.04185 5.36493 6.05737 5.41274 6.02723 5.43501L5.79431 5.60699L5.88168 5.88304C5.89302 5.91876 5.85229 5.94838 5.82177 5.92654L5.58618 5.75821L5.35063 5.92659C5.32012 5.94843 5.27948 5.91881 5.29073 5.88309L5.3781 5.60704L5.14518 5.43506C5.11504 5.41274 5.13055 5.36493 5.16805 5.36465L5.4576 5.36245L5.5492 5.08776C5.56106 5.05213 5.61135 5.05213 5.62321 5.08771Z" fill="#F5F5F5"/>
<path d="M5.62321 6.52457L5.71481 6.79926L6.00435 6.80146C6.04185 6.80179 6.05737 6.84956 6.02723 6.87187L5.79431 7.0439L5.88168 7.31995C5.89302 7.35567 5.85229 7.38529 5.82177 7.36345L5.58618 7.19507L5.35063 7.36345C5.32012 7.38524 5.27948 7.35567 5.29073 7.31995L5.3781 7.0439L5.14518 6.87187C5.11504 6.84956 5.13055 6.80179 5.16805 6.80146L5.4576 6.79926L5.5492 6.52457C5.56106 6.48904 5.61135 6.48904 5.62321 6.52457Z" fill="#F5F5F5"/>
<path d="M5.62321 7.96163L5.71481 8.23631L6.00435 8.23852C6.04185 8.23884 6.05737 8.28661 6.02723 8.30892L5.79431 8.48095L5.88168 8.757C5.89302 8.79272 5.85229 8.82234 5.82177 8.8005L5.58618 8.63208L5.35063 8.80045C5.32012 8.82225 5.27948 8.79267 5.29073 8.75695L5.3781 8.48091L5.14518 8.30888C5.11504 8.28656 5.13055 8.2388 5.16805 8.23847L5.4576 8.23627L5.5492 7.96158C5.56106 7.92605 5.61135 7.92605 5.62321 7.96163Z" fill="#F5F5F5"/>
<path d="M5.62321 9.39851L5.71481 9.6732L6.00435 9.6754C6.04185 9.67573 6.05737 9.72354 6.02723 9.74581L5.79431 9.91784L5.88168 10.1939C5.89302 10.2296 5.85229 10.2592 5.82177 10.2374L5.58618 10.069L5.35063 10.2374C5.32012 10.2592 5.27948 10.2296 5.29073 10.1939L5.3781 9.91784L5.14518 9.74581C5.11504 9.72359 5.13055 9.67573 5.16805 9.6754L5.4576 9.6732L5.5492 9.39851C5.56106 9.36293 5.61135 9.36293 5.62321 9.39851Z" fill="#F5F5F5"/>
<path d="M5.62321 10.8354L5.71481 11.1101L6.00435 11.1123C6.04185 11.1126 6.05737 11.1603 6.02723 11.1827L5.79431 11.3547L5.88168 11.6307C5.89302 11.6665 5.85229 11.6961 5.82177 11.6742L5.58618 11.5059L5.35063 11.6742C5.32012 11.696 5.27948 11.6665 5.29073 11.6307L5.3781 11.3547L5.14518 11.1827C5.11504 11.1603 5.13055 11.1126 5.16805 11.1123L5.4576 11.1101L5.5492 10.8354C5.56106 10.7998 5.61135 10.7998 5.62321 10.8354Z" fill="#F5F5F5"/>
<path d="M6.73852 5.79215L6.83011 6.06684L7.11966 6.06904C7.15716 6.06937 7.17267 6.11718 7.14253 6.13945L6.90961 6.31148L6.99698 6.58753C7.00833 6.62325 6.96759 6.65288 6.93708 6.63103L6.70153 6.46266L6.46599 6.63103C6.43547 6.65283 6.39483 6.62325 6.40608 6.58753L6.49346 6.31148L6.26054 6.13945C6.2304 6.11714 6.24591 6.06937 6.28341 6.06904L6.57296 6.06684L6.66455 5.79215C6.67641 5.75662 6.72666 5.75662 6.73852 5.79215Z" fill="#F5F5F5"/>
<path d="M6.73852 7.2292L6.83011 7.50389L7.11966 7.50609C7.15716 7.50642 7.17267 7.55423 7.14253 7.5765L6.90961 7.74853L6.99698 8.02457C7.00833 8.06029 6.96759 8.08992 6.93708 8.06807L6.70153 7.8997L6.46599 8.06807C6.43547 8.08987 6.39483 8.06034 6.40608 8.02457L6.49346 7.74853L6.26054 7.5765C6.2304 7.55428 6.24591 7.50642 6.28341 7.50609L6.57296 7.50389L6.66455 7.2292C6.67641 7.19362 6.72666 7.19362 6.73852 7.2292Z" fill="#F5F5F5"/>
<path d="M6.73852 8.66609L6.83011 8.94078L7.11966 8.94298C7.15716 8.94331 7.17267 8.99107 7.14253 9.01339L6.90961 9.18542L6.99698 9.46147C7.00833 9.49719 6.96759 9.52681 6.93708 9.50497L6.70153 9.33659L6.46599 9.50497C6.43547 9.52676 6.39483 9.49719 6.40608 9.46147L6.49346 9.18542L6.26054 9.01339C6.2304 8.99107 6.24591 8.94331 6.28341 8.94298L6.57296 8.94078L6.66455 8.66609C6.67641 8.63051 6.72666 8.63051 6.73852 8.66609Z" fill="#F5F5F5"/>
<path d="M6.73852 10.1029L6.83011 10.3776L7.11966 10.3798C7.15716 10.3802 7.17267 10.4279 7.14253 10.4502L6.90961 10.6223L6.99698 10.8983C7.00833 10.934 6.96759 10.9637 6.93708 10.9418L6.70153 10.7734L6.46599 10.9418C6.43547 10.9637 6.39483 10.934 6.40608 10.8983L6.49346 10.6223L6.26054 10.4502C6.2304 10.4279 6.24591 10.3802 6.28341 10.3798L6.57296 10.3776L6.66455 10.1029C6.67641 10.0674 6.72666 10.0674 6.73852 10.1029Z" fill="#F5F5F5"/>
<path d="M7.85387 5.08772L7.94547 5.36241L8.23501 5.36461C8.27251 5.36494 8.28803 5.41275 8.25789 5.43502L8.02497 5.607L8.11234 5.88305C8.12368 5.91877 8.08295 5.94839 8.05243 5.92655L7.81689 5.75817L7.58134 5.92655C7.55083 5.94839 7.51019 5.91877 7.52144 5.88305L7.60881 5.607L7.37589 5.43502C7.34575 5.4127 7.36127 5.36489 7.39877 5.36461L7.68831 5.36241L7.7799 5.08772C7.79167 5.05214 7.84201 5.05214 7.85387 5.08772Z" fill="#F5F5F5"/>
<path d="M7.85387 6.52457L7.94547 6.79926L8.23501 6.80146C8.27251 6.80179 8.28803 6.84956 8.25789 6.87187L8.02497 7.0439L8.11234 7.31995C8.12368 7.35567 8.08295 7.38529 8.05243 7.36345L7.81689 7.19507L7.58134 7.36345C7.55083 7.38524 7.51019 7.35567 7.52144 7.31995L7.60881 7.0439L7.37589 6.87187C7.34575 6.84956 7.36127 6.80179 7.39877 6.80146L7.68831 6.79926L7.7799 6.52457C7.79167 6.48904 7.84201 6.48904 7.85387 6.52457Z" fill="#F5F5F5"/>
<path d="M7.85387 7.96162L7.94547 8.23631L8.23501 8.23851C8.27251 8.23884 8.28803 8.2866 8.25789 8.30892L8.02497 8.48095L8.11234 8.75699C8.12368 8.79271 8.08295 8.82234 8.05243 8.80049L7.81689 8.63212L7.58134 8.80049C7.55083 8.82229 7.51019 8.79276 7.52144 8.75699L7.60881 8.48095L7.37589 8.30892C7.34575 8.2866 7.36127 8.23884 7.39877 8.23851L7.68831 8.23631L7.7799 7.96162C7.79167 7.92604 7.84201 7.92604 7.85387 7.96162Z" fill="#F5F5F5"/>
<path d="M7.85387 9.39851L7.94547 9.6732L8.23501 9.6754C8.27251 9.67573 8.28803 9.72354 8.25789 9.74581L8.02497 9.91784L8.11234 10.1939C8.12368 10.2296 8.08295 10.2592 8.05243 10.2374L7.81689 10.069L7.58134 10.2374C7.55083 10.2592 7.51019 10.2296 7.52144 10.1939L7.60881 9.91784L7.37589 9.74581C7.34575 9.72359 7.36127 9.67573 7.39877 9.6754L7.68831 9.6732L7.7799 9.39851C7.79167 9.36293 7.84201 9.36293 7.85387 9.39851Z" fill="#F5F5F5"/>
<path d="M7.85387 10.8354L7.94547 11.1101L8.23501 11.1123C8.27251 11.1126 8.28803 11.1603 8.25789 11.1827L8.02497 11.3547L8.11234 11.6307C8.12368 11.6665 8.08295 11.6961 8.05243 11.6742L7.81689 11.5059L7.58134 11.6742C7.55083 11.696 7.51019 11.6665 7.52144 11.6307L7.60881 11.3547L7.37589 11.1827C7.34575 11.1603 7.36127 11.1126 7.39877 11.1123L7.68831 11.1101L7.7799 10.8354C7.79167 10.7998 7.84201 10.7998 7.85387 10.8354Z" fill="#F5F5F5"/>
<path d="M8.96917 5.79215L9.06077 6.06684L9.35031 6.06904C9.38781 6.06937 9.40333 6.11718 9.37319 6.13945L9.14026 6.31148L9.22764 6.58753C9.23898 6.62325 9.19825 6.65288 9.16773 6.63103L8.93219 6.46266L8.69664 6.63103C8.66613 6.65283 8.62548 6.62325 8.63673 6.58753L8.72411 6.31148L8.49119 6.13945C8.46105 6.11714 8.47656 6.06937 8.51406 6.06904L8.80361 6.06684L8.8952 5.79215C8.90702 5.75662 8.95731 5.75662 8.96917 5.79215Z" fill="#F5F5F5"/>
<path d="M8.96917 7.2292L9.06077 7.50389L9.35031 7.50609C9.38781 7.50642 9.40333 7.55423 9.37319 7.5765L9.14026 7.74853L9.22764 8.02457C9.23898 8.06029 9.19825 8.08992 9.16773 8.06807L8.93219 7.8997L8.69664 8.06807C8.66613 8.08987 8.62548 8.06034 8.63673 8.02457L8.72411 7.74853L8.49119 7.5765C8.46105 7.55428 8.47656 7.50642 8.51406 7.50609L8.80361 7.50389L8.8952 7.2292C8.90702 7.19362 8.95731 7.19362 8.96917 7.2292Z" fill="#F5F5F5"/>
<path d="M8.96917 8.66609L9.06077 8.94078L9.35031 8.94298C9.38781 8.94331 9.40333 8.99107 9.37319 9.01339L9.14026 9.18542L9.22764 9.46147C9.23898 9.49719 9.19825 9.52681 9.16773 9.50497L8.93219 9.33659L8.69664 9.50497C8.66613 9.52676 8.62548 9.49719 8.63673 9.46147L8.72411 9.18542L8.49119 9.01339C8.46105 8.99107 8.47656 8.94331 8.51406 8.94298L8.80361 8.94078L8.8952 8.66609C8.90702 8.63051 8.95731 8.63051 8.96917 8.66609Z" fill="#F5F5F5"/>
<path d="M8.96917 10.1029L9.06077 10.3776L9.35031 10.3798C9.38781 10.3802 9.40333 10.4279 9.37319 10.4502L9.14026 10.6223L9.22764 10.8983C9.23898 10.934 9.19825 10.9637 9.16773 10.9418L8.93219 10.7734L8.69664 10.9418C8.66613 10.9637 8.62548 10.934 8.63673 10.8983L8.72411 10.6223L8.49119 10.4502C8.46105 10.4279 8.47656 10.3802 8.51406 10.3798L8.80361 10.3776L8.8952 10.1029C8.90702 10.0674 8.95731 10.0674 8.96917 10.1029Z" fill="#F5F5F5"/>
<path d="M10.0845 5.08772L10.1761 5.36241L10.4656 5.36461C10.5031 5.36494 10.5186 5.41275 10.4885 5.43502L10.2556 5.607L10.3429 5.88305C10.3543 5.91877 10.3135 5.94839 10.283 5.92655L10.0475 5.75817L9.81194 5.92655C9.78142 5.94839 9.74078 5.91877 9.75203 5.88305L9.83941 5.607L9.60648 5.43502C9.57634 5.4127 9.59186 5.36489 9.62936 5.36461L9.91891 5.36241L10.0105 5.08772C10.0223 5.05214 10.0726 5.05214 10.0845 5.08772Z" fill="#F5F5F5"/>
<path d="M10.0845 6.52457L10.1761 6.79926L10.4656 6.80146C10.5031 6.80179 10.5186 6.84956 10.4885 6.87187L10.2556 7.0439L10.3429 7.31995C10.3543 7.35567 10.3135 7.38529 10.283 7.36345L10.0475 7.19507L9.81194 7.36345C9.78142 7.38524 9.74078 7.35567 9.75203 7.31995L9.83941 7.0439L9.60648 6.87187C9.57634 6.84956 9.59186 6.80179 9.62936 6.80146L9.91891 6.79926L10.0105 6.52457C10.0223 6.48904 10.0726 6.48904 10.0845 6.52457Z" fill="#F5F5F5"/>
<path d="M10.0845 7.96162L10.1761 8.23631L10.4656 8.23851C10.5031 8.23884 10.5186 8.2866 10.4885 8.30892L10.2556 8.48095L10.3429 8.75699C10.3543 8.79271 10.3135 8.82234 10.283 8.80049L10.0475 8.63212L9.81194 8.80049C9.78142 8.82229 9.74078 8.79276 9.75203 8.75699L9.83941 8.48095L9.60648 8.30892C9.57634 8.2866 9.59186 8.23884 9.62936 8.23851L9.91891 8.23631L10.0105 7.96162C10.0223 7.92604 10.0726 7.92604 10.0845 7.96162Z" fill="#F5F5F5"/>
<path d="M10.0845 9.39851L10.1761 9.6732L10.4656 9.6754C10.5031 9.67573 10.5186 9.72354 10.4885 9.74581L10.2556 9.91784L10.3429 10.1939C10.3543 10.2296 10.3135 10.2592 10.283 10.2374L10.0475 10.069L9.81194 10.2374C9.78142 10.2592 9.74078 10.2296 9.75203 10.1939L9.83941 9.91784L9.60648 9.74581C9.57634 9.72359 9.59186 9.67573 9.62936 9.6754L9.91891 9.6732L10.0105 9.39851C10.0223 9.36293 10.0726 9.36293 10.0845 9.39851Z" fill="#F5F5F5"/>
<path d="M10.0845 10.8354L10.1761 11.1101L10.4656 11.1123C10.5031 11.1126 10.5186 11.1603 10.4885 11.1827L10.2556 11.3547L10.3429 11.6307C10.3543 11.6665 10.3135 11.6961 10.283 11.6742L10.0475 11.5059L9.81194 11.6742C9.78142 11.696 9.74078 11.6665 9.75203 11.6307L9.83941 11.3547L9.60648 11.1827C9.57634 11.1603 9.59186 11.1126 9.62936 11.1123L9.91891 11.1101L10.0105 10.8354C10.0223 10.7998 10.0726 10.7998 10.0845 10.8354Z" fill="#F5F5F5"/>
</svg>
