<svg width="16" height="16" viewBox="0 0 16 16" fill="none" xmlns="http://www.w3.org/2000/svg">
<g clip-path="url(#clip0_18_869)">
<path d="M8.00017 5.81824C6.79653 5.81824 5.81836 6.79641 5.81836 8.00005C5.81836 9.20369 6.79653 10.1819 8.00017 10.1819C9.20382 10.1819 10.182 9.20369 10.182 8.00005C10.182 6.79641 9.20378 5.81824 8.00017 5.81824Z" fill="#A9A8B3"/>
<path d="M8.00002 2.54553C4.36364 2.54553 1.25819 4.80733 0 8.00008C1.25819 11.1928 4.36364 13.4546 8.00002 13.4546C11.64 13.4546 14.7418 11.1928 16 8.00008C14.7418 4.80733 11.64 2.54553 8.00002 2.54553ZM8.00002 11.6364C5.99274 11.6364 4.36364 10.0073 4.36364 8.00005C4.36364 5.99277 5.99274 4.3637 8.00002 4.3637C10.0073 4.3637 11.6364 5.99281 11.6364 8.00008C11.6364 10.0074 10.0073 11.6364 8.00002 11.6364Z" fill="#A9A8B3"/>
</g>
<defs>
<clipPath id="clip0_18_869">
<rect width="16" height="16" fill="white"/>
</clipPath>
</defs>
</svg>
