<svg width="100" height="80" viewBox="0 0 100 80" fill="none" xmlns="http://www.w3.org/2000/svg">
<rect width="100" height="80" fill="#6883C9"/>
<path fill-rule="evenodd" clip-rule="evenodd" d="M50 16C36.7452 16 26 26.7452 26 40C26 53.2548 36.7452 64 50 64C63.2548 64 74 53.2548 74 40C74 26.7452 63.2548 16 50 16ZM51.7499 34.1244C51.7499 34.1244 56.1272 30.803 59.033 35.5771C61.9095 40.3023 60.7891 45.4424 60.7667 45.5454L60.7663 45.547C60.5624 46.8187 59.8847 47.6688 58.6105 47.5621C57.3362 47.4558 54.5744 44.1349 54.5744 44.1349C54.3468 43.8612 53.8692 43.6377 53.5139 43.6377L46.4847 43.6389C46.1299 43.6389 45.6519 43.8625 45.4238 44.1361C45.4238 44.1361 42.6625 47.4571 41.3903 47.5633C40.1144 47.67 39.4383 46.8208 39.2332 45.5482C39.2332 45.5482 38.0624 40.3507 40.9677 35.5783C43.8739 30.8043 48.2517 34.1265 48.2517 34.1265C48.5352 34.341 49.0586 34.5174 49.4143 34.517L50.5868 34.5162C50.9425 34.5154 51.466 34.339 51.7499 34.1244ZM45.8513 39.463H47.3586C47.3586 39.463 47.6138 39.0248 47.5932 38.6388C47.5727 38.2531 47.3241 37.934 47.3241 37.934H45.9006L45.9067 36.4554C45.9067 36.4554 45.5797 36.2876 45.1334 36.2737C44.6875 36.261 44.3773 36.4271 44.3773 36.4271V37.9344H42.8696C42.8696 37.9344 42.6264 38.3221 42.6731 38.8016C42.7207 39.2812 42.8984 39.4634 42.8984 39.4634H44.3219V40.8874C44.3219 40.8874 44.5451 41.1458 45.0382 41.1532C45.5322 41.1593 45.8513 40.9157 45.8513 40.9157V39.463ZM53.0799 39.9257C53.0799 40.585 53.612 41.1187 54.2721 41.1187C54.9293 41.1187 55.4655 40.5854 55.4655 39.9257C55.4655 39.2652 54.9293 38.7327 54.2721 38.7327C53.612 38.7327 53.0799 39.2652 53.0799 39.9257ZM53.0799 36.6437C53.0799 37.303 53.612 37.8363 54.2721 37.8363C54.9293 37.8363 55.4655 37.3034 55.4655 36.6437C55.4655 35.9832 54.9293 35.4507 54.2721 35.4507C53.612 35.4507 53.0799 35.9832 53.0799 36.6437ZM56.0509 38.4053C56.0509 39.065 56.583 39.5983 57.2431 39.5983C57.9003 39.5983 58.4365 39.065 58.4365 38.4053C58.4365 37.7453 57.9003 37.2123 57.2431 37.2123C56.583 37.2123 56.0509 37.7453 56.0509 38.4053Z" fill="white"/>
</svg>
