<svg width="16" height="16" viewBox="0 0 16 16" fill="none" xmlns="http://www.w3.org/2000/svg">
<path fill-rule="evenodd" clip-rule="evenodd" d="M15 8C15 9.64541 14.4323 11.1582 13.4821 12.3533C13.5383 12.2071 13.5702 12.0382 13.5766 11.8466C13.5784 11.7912 13.5781 11.7339 13.5757 11.6747C13.5528 11.1194 13.3399 10.3964 12.9128 9.50362C12.8944 9.46504 12.8757 9.42644 12.8567 9.38782C11.9304 7.49498 10.4998 5.59858 9.90383 4.91394C9.90254 4.91238 9.90179 4.91146 9.90157 4.91119C10.0743 4.71854 10.6089 4.19121 11.3665 3.6224C12.1241 3.05352 12.6761 2.99525 12.8685 3.02982C12.6909 2.83723 12.2765 2.47427 11.9288 2.22983C10.8515 1.69651 8.86073 2.59773 8.00739 3.1113V6.64457C10.1827 8.31861 12.1952 10.9037 12.6021 11.9111C12.7378 12.247 12.7907 12.5175 12.7972 12.7268C12.7984 12.7638 12.7981 12.799 12.7965 12.8322C12.7892 12.9869 12.7548 13.1005 12.7134 13.1754C11.4695 14.3089 9.81545 15 8 15C6.20054 15 4.55966 14.321 3.31959 13.2053C3.26946 13.1308 3.22481 13.0041 3.21779 12.8215C3.21706 12.8026 3.21674 12.7831 3.21686 12.7631C3.21809 12.5491 3.26904 12.2667 3.41268 11.9111C3.81962 10.9037 5.83211 8.31861 8.00738 6.64457V3.1113C7.15405 2.59773 5.16326 1.69651 4.08598 2.22983C3.73823 2.47427 3.32389 2.83723 3.14632 3.02982C3.33869 2.99525 3.89065 3.05352 4.64829 3.6224C5.40584 4.19121 5.94049 4.71854 6.1132 4.91119L6.11095 4.91394C5.51525 5.59824 4.08578 7.49313 3.15939 9.38505C3.13998 9.4246 3.12082 9.46412 3.10193 9.50362C2.66944 10.4077 2.45658 11.1377 2.43831 11.6958C2.43632 11.7563 2.43662 11.8149 2.43919 11.8714C2.44816 12.0692 2.48481 12.2422 2.54777 12.3905C1.5796 11.1897 1 9.66256 1 8C1 4.13401 4.13401 1 8 1C11.866 1 15 4.13401 15 8Z" fill="white"/>
</svg>
